<svg width="80" height="32" viewBox="0 0 80 32" fill="none" xmlns="http://www.w3.org/2000/svg">
  <path
    d="M1.17 0.399999V13H3.654V8.86H5.868C7.074 8.86 8.1 8.446 8.928 7.636C9.756 6.826 10.17 5.818 10.17 4.63C10.17 3.442 9.756 2.434 8.928 1.624C8.1 0.813999 7.074 0.399999 5.868 0.399999H1.17ZM3.654 6.538V2.722H5.868C6.93 2.722 7.704 3.532 7.704 4.63C7.704 5.71 6.93 6.538 5.868 6.538H3.654ZM21.3812 13L18.5912 8.248C20.0492 7.582 21.0212 6.142 21.0212 4.576C21.0212 3.424 20.6072 2.434 19.7972 1.624C18.9872 0.813999 17.9972 0.399999 16.8272 0.399999H11.7872V13H14.2712V8.626H16.1612L18.6992 13H21.3812ZM16.8272 2.722C17.7632 2.722 18.5372 3.55 18.5372 4.576C18.5372 5.602 17.7632 6.448 16.8272 6.448H14.2712V2.722H16.8272ZM25.3278 7.798H30.0978V5.458H25.3278V2.776H30.5478V0.399999H22.8438V13H30.6378V10.624H25.3278V7.798ZM36.6908 13.252C38.0408 13.252 39.1388 12.91 39.9848 12.226C40.8308 11.542 41.2628 10.624 41.2628 9.454C41.2628 8.734 41.0648 8.104 40.7948 7.672C40.5608 7.24 39.9848 6.79 39.6068 6.556C39.4268 6.43 39.1568 6.304 38.8148 6.178C38.4728 6.034 38.2028 5.926 38.0048 5.872L37.1408 5.584C36.2048 5.296 35.5748 5.026 35.2328 4.792C34.9088 4.54 34.7468 4.216 34.7468 3.82C34.7468 3.082 35.3768 2.56 36.4028 2.56C37.5008 2.56 38.3108 3.1 38.8148 4.18L40.9028 2.974C40.0388 1.192 38.4368 0.147999 36.4028 0.147999C35.2688 0.147999 34.2788 0.489999 33.4688 1.174C32.6588 1.84 32.2628 2.758 32.2628 3.892C32.2628 5.044 32.6768 5.908 33.4508 6.484C34.2428 7.042 34.9268 7.312 36.0608 7.654C37.0868 7.942 37.7888 8.212 38.1848 8.464C38.5808 8.698 38.7788 9.04 38.7788 9.49C38.7788 10.264 38.1488 10.822 36.7628 10.822C35.3228 10.822 34.3508 10.174 33.8647 8.896L31.7408 10.138C32.4428 12.064 34.1888 13.252 36.6908 13.252ZM41.4899 0.399999V2.776H44.8739V13H47.3579V2.776H50.7599V0.399999H41.4899ZM52.1466 13H54.6306V0.399999H52.1466V13ZM63.011 6.232V8.428H66.827C66.377 9.922 65.081 10.822 63.155 10.822C61.859 10.822 60.815 10.444 60.023 9.67C59.249 8.896 58.853 7.906 58.853 6.718C58.853 5.512 59.231 4.522 60.005 3.748C60.779 2.956 61.769 2.56 62.975 2.56C64.469 2.56 65.765 3.28 66.359 4.306L68.483 3.082C67.403 1.3 65.351 0.147999 62.993 0.147999C61.121 0.147999 59.555 0.778 58.277 2.056C57.017 3.334 56.387 4.882 56.387 6.718C56.387 8.536 57.017 10.084 58.295 11.362C59.573 12.622 61.193 13.252 63.137 13.252C64.955 13.252 66.449 12.694 67.601 11.578C68.753 10.462 69.329 9.004 69.329 7.204V6.232H63.011ZM73.5798 7.798H78.3498V5.458H73.5798V2.776H78.7998V0.399999H71.0958V13H78.8898V10.624H73.5798V7.798ZM7.543 31.266C9.975 31.266 12.122 30.05 13.262 28.131L11.001 26.82C10.374 27.979 9.063 28.701 7.543 28.701C6.251 28.701 5.206 28.302 4.408 27.485C3.629 26.668 3.23 25.623 3.23 24.35C3.23 23.058 3.629 22.013 4.408 21.196C5.206 20.379 6.251 19.98 7.543 19.98C9.063 19.98 10.336 20.683 11.001 21.88L13.262 20.569C12.122 18.65 9.956 17.434 7.543 17.434C5.548 17.434 3.895 18.099 2.584 19.429C1.273 20.74 0.627 22.393 0.627 24.35C0.627 26.307 1.273 27.941 2.584 29.271C3.895 30.601 5.548 31.266 7.543 31.266ZM22.9097 24.103C23.7457 23.438 24.1637 22.545 24.1637 21.443C24.1637 20.36 23.7647 19.467 22.9857 18.764C22.2067 18.061 21.2567 17.7 20.1167 17.7H14.8727V31H20.5157C21.6747 31 22.6627 30.639 23.4607 29.917C24.2587 29.195 24.6577 28.264 24.6577 27.143C24.6577 25.794 24.0687 24.768 22.9097 24.103ZM20.1167 20.151C20.9527 20.151 21.5417 20.778 21.5417 21.614C21.5417 22.45 20.9337 23.077 20.1167 23.077H17.4947V20.151H20.1167ZM17.4947 28.549V25.414H20.5157C21.4087 25.414 22.0547 26.079 22.0547 26.972C22.0547 27.884 21.4087 28.549 20.5157 28.549H17.4947ZM28.9986 25.509H34.0336V23.039H28.9986V20.208H34.5086V17.7H26.3766V31H34.6036V28.492H28.9986V25.509ZM35.4638 17.7V20.208H39.0358V31H41.6578V20.208H45.2488V17.7H35.4638ZM62.7485 17.434C61.0955 17.434 59.6325 17.947 58.3975 18.973C57.1625 19.999 56.3835 21.31 56.0605 22.906H54.0845V17.7H51.4625V31H54.0845V25.414H56.0035C56.2505 27.105 57.0105 28.511 58.2645 29.613C59.5375 30.715 61.0195 31.266 62.7485 31.266C64.6675 31.266 66.3015 30.601 67.6505 29.252C68.9995 27.903 69.6645 26.269 69.6645 24.35C69.6645 22.412 68.9995 20.778 67.6505 19.448C66.3015 18.099 64.6675 17.434 62.7485 17.434ZM62.7485 19.98C63.9645 19.98 64.9905 20.398 65.8075 21.215C66.6245 22.032 67.0425 23.077 67.0425 24.35C67.0425 25.623 66.6245 26.668 65.8075 27.485C64.9905 28.302 63.9645 28.701 62.7485 28.701C61.5325 28.701 60.5065 28.302 59.6895 27.485C58.8725 26.668 58.4545 25.623 58.4545 24.35C58.4545 23.058 58.8535 22.013 59.6705 21.196C60.4875 20.379 61.5135 19.98 62.7485 19.98ZM71.5016 17.7V31H74.1236V20.208H79.0636V17.7H71.5016Z"
    fill="black" />
</svg>
