<svg width="147" height="64" viewBox="0 0 147 64" fill="none" xmlns="http://www.w3.org/2000/svg">
  <path
    d="M42.56 10.2V27H45.872V21.48H48.824C50.432 21.48 51.8 20.928 52.904 19.848C54.008 18.768 54.56 17.424 54.56 15.84C54.56 14.256 54.008 12.912 52.904 11.832C51.8 10.752 50.432 10.2 48.824 10.2H42.56ZM45.872 18.384V13.296H48.824C50.24 13.296 51.272 14.376 51.272 15.84C51.272 17.28 50.24 18.384 48.824 18.384H45.872ZM69.5083 27L65.7883 20.664C67.7323 19.776 69.0283 17.856 69.0283 15.768C69.0283 14.232 68.4763 12.912 67.3963 11.832C66.3163 10.752 64.9963 10.2 63.4363 10.2H56.7163V27H60.0283V21.168H62.5483L65.9323 27H69.5083ZM63.4363 13.296C64.6843 13.296 65.7163 14.4 65.7163 15.768C65.7163 17.136 64.6843 18.264 63.4363 18.264H60.0283V13.296H63.4363ZM74.7704 20.064H81.1304V16.944H74.7704V13.368H81.7304V10.2H71.4584V27H81.8504V23.832H74.7704V20.064ZM89.921 27.336C91.721 27.336 93.185 26.88 94.313 25.968C95.441 25.056 96.017 23.832 96.017 22.272C96.017 21.312 95.753 20.472 95.393 19.896C95.081 19.32 94.313 18.72 93.809 18.408C93.569 18.24 93.209 18.072 92.753 17.904C92.297 17.712 91.937 17.568 91.673 17.496L90.521 17.112C89.273 16.728 88.433 16.368 87.977 16.056C87.545 15.72 87.329 15.288 87.329 14.76C87.329 13.776 88.169 13.08 89.537 13.08C91.001 13.08 92.081 13.8 92.753 15.24L95.537 13.632C94.385 11.256 92.249 9.864 89.537 9.864C88.025 9.864 86.705 10.32 85.625 11.232C84.545 12.12 84.017 13.344 84.017 14.856C84.017 16.392 84.569 17.544 85.601 18.312C86.657 19.056 87.569 19.416 89.081 19.872C90.449 20.256 91.385 20.616 91.913 20.952C92.441 21.264 92.705 21.72 92.705 22.32C92.705 23.352 91.865 24.096 90.017 24.096C88.097 24.096 86.801 23.232 86.153 21.528L83.321 23.184C84.257 25.752 86.585 27.336 89.921 27.336ZM96.3198 10.2V13.368H100.832V27H104.144V13.368H108.68V10.2H96.3198ZM110.529 27H113.841V10.2H110.529V27ZM125.015 17.976V20.904H130.103C129.503 22.896 127.775 24.096 125.207 24.096C123.479 24.096 122.087 23.592 121.031 22.56C119.999 21.528 119.471 20.208 119.471 18.624C119.471 17.016 119.975 15.696 121.007 14.664C122.039 13.608 123.359 13.08 124.967 13.08C126.959 13.08 128.687 14.04 129.479 15.408L132.311 13.776C130.871 11.4 128.135 9.864 124.991 9.864C122.495 9.864 120.407 10.704 118.703 12.408C117.023 14.112 116.183 16.176 116.183 18.624C116.183 21.048 117.023 23.112 118.727 24.816C120.431 26.496 122.591 27.336 125.183 27.336C127.607 27.336 129.599 26.592 131.135 25.104C132.671 23.616 133.439 21.672 133.439 19.272V17.976H125.015ZM139.106 20.064H145.466V16.944H139.106V13.368H146.066V10.2H135.794V27H146.186V23.832H139.106V20.064ZM50.925 57.35C54.125 57.35 56.95 55.75 58.45 53.225L55.475 51.5C54.65 53.025 52.925 53.975 50.925 53.975C49.225 53.975 47.85 53.45 46.8 52.375C45.775 51.3 45.25 49.925 45.25 48.25C45.25 46.55 45.775 45.175 46.8 44.1C47.85 43.025 49.225 42.5 50.925 42.5C52.925 42.5 54.6 43.425 55.475 45L58.45 43.275C56.95 40.75 54.1 39.15 50.925 39.15C48.3 39.15 46.125 40.025 44.4 41.775C42.675 43.5 41.825 45.675 41.825 48.25C41.825 50.825 42.675 52.975 44.4 54.725C46.125 56.475 48.3 57.35 50.925 57.35ZM71.1443 47.925C72.2443 47.05 72.7943 45.875 72.7943 44.425C72.7943 43 72.2693 41.825 71.2443 40.9C70.2193 39.975 68.9693 39.5 67.4693 39.5H60.5693V57H67.9943C69.5193 57 70.8193 56.525 71.8693 55.575C72.9193 54.625 73.4443 53.4 73.4443 51.925C73.4443 50.15 72.6693 48.8 71.1443 47.925ZM67.4693 42.725C68.5693 42.725 69.3443 43.55 69.3443 44.65C69.3443 45.75 68.5443 46.575 67.4693 46.575H64.0193V42.725H67.4693ZM64.0193 53.775V49.65H67.9943C69.1693 49.65 70.0193 50.525 70.0193 51.7C70.0193 52.9 69.1693 53.775 67.9943 53.775H64.0193ZM79.1561 49.775H85.7811V46.525H79.1561V42.8H86.4061V39.5H75.7061V57H86.5311V53.7H79.1561V49.775ZM87.6629 39.5V42.8H92.3629V57H95.8129V42.8H100.538V39.5H87.6629ZM123.564 39.15C121.389 39.15 119.464 39.825 117.839 41.175C116.214 42.525 115.189 44.25 114.764 46.35H112.164V39.5H108.714V57H112.164V49.65H114.689C115.014 51.875 116.014 53.725 117.664 55.175C119.339 56.625 121.289 57.35 123.564 57.35C126.089 57.35 128.239 56.475 130.014 54.7C131.789 52.925 132.664 50.775 132.664 48.25C132.664 45.7 131.789 43.55 130.014 41.8C128.239 40.025 126.089 39.15 123.564 39.15ZM123.564 42.5C125.164 42.5 126.514 43.05 127.589 44.125C128.664 45.2 129.214 46.575 129.214 48.25C129.214 49.925 128.664 51.3 127.589 52.375C126.514 53.45 125.164 53.975 123.564 53.975C121.964 53.975 120.614 53.45 119.539 52.375C118.464 51.3 117.914 49.925 117.914 48.25C117.914 46.55 118.439 45.175 119.514 44.1C120.589 43.025 121.939 42.5 123.564 42.5ZM135.081 39.5V57H138.531V42.8H145.031V39.5H135.081Z"
    fill="black" />
  <path
    d="M10.3317 15.6628C11.0299 13.8474 12.6009 12.9281 13.2991 12.6953H17.8376V25.9616H5.79321V24.0415C6.54962 23.4596 8.237 21.9817 8.93522 20.7249C9.808 19.1539 9.45889 17.932 10.3317 15.6628Z"
    fill="#47708A" />
  <path
    d="M24.9935 15.6628C24.2953 13.8474 22.7243 12.9281 22.0261 12.6953H17.4876V25.9616H29.532V24.0415C28.7756 23.4596 27.0882 21.9817 26.39 20.7249C25.5172 19.1539 25.8663 17.932 24.9935 15.6628Z"
    fill="#47708A" />
  <path d="M13.9972 11.648H21.154V9.37874L19.4084 7.80774H15.7428L13.9972 9.37874V11.648Z" fill="#47708A" />
  <path
    d="M29.0094 60.1744C29.0094 62.0061 23.6951 63.491 17.1396 63.491C10.5841 63.491 5.26978 62.0061 5.26978 60.1744C5.26978 58.3427 10.5841 55.2869 17.1396 55.2869C23.6951 55.2869 29.0094 58.3427 29.0094 60.1744Z"
    fill="#47708A" />
  <path
    d="M17.3135 7.10946C17.3135 5.53842 17.3135 0.999964 12.5993 1C8.22147 1.00003 2.47495 6.23668 1.25305 16.0118C0.0311602 25.787 3.38533 31.8964 8.06223 35.5621C12.7391 39.2278 14.5181 38.7041 16.4382 42.0207C17.9743 44.6739 17.4881 54.7051 17.3135 58.0798L15.917 61.0473"
    stroke="#47708A" stroke-width="2" />
  <rect x="15.0441" y="45.6863" width="4.53846" height="11.1716" fill="#47708A" />
</svg>
